<svg id="Layer_1" data-name="Layer 1" xmlns="http://www.w3.org/2000/svg" xmlns:xlink="http://www.w3.org/1999/xlink" viewBox="0 0 641.55 166.89"><defs><style>.cls-1{fill:#00a1f3;}.cls-2{fill:#db2630;}.cls-3{fill:url(#linear-gradient);}.cls-4{fill:#ff7300;}.cls-5{fill:#fb0;}.cls-6{fill:#333;}.cls-7{fill:url(#radial-gradient);}.cls-8{fill:#fff;}.cls-9{fill:#f9b900;}.cls-10{fill:#ffd400;}.cls-11{fill:url(#linear-gradient-2);}</style><linearGradient id="linear-gradient" x1="285.31" y1="-277" x2="261.72" y2="-317.87" gradientTransform="matrix(1, 0, 0, -1, -186, -252.11)" gradientUnits="userSpaceOnUse"><stop offset="0" stop-color="#ff9700"/><stop offset="1" stop-color="#da2530"/></linearGradient><radialGradient id="radial-gradient" cx="255.06" cy="-333.16" r="74.34" gradientTransform="matrix(1, 0, 0, -1, -186, -252.11)" gradientUnits="userSpaceOnUse"><stop offset="0" stop-color="#3d3d3d"/><stop offset="0.69"/></radialGradient><linearGradient id="linear-gradient-2" x1="194" y1="18.11" x2="117" y2="18.11" gradientTransform="matrix(1, 0, 0, -1, 0, 168)" gradientUnits="userSpaceOnUse"><stop offset="0" stop-color="#161616"/><stop offset="0.69"/></linearGradient></defs><title>logo</title><path class="cls-1" d="M183.93,104.41v16.92h-8.86q-11.28,0-17.55-5.58t-6.27-18.47V73.69h-8.63V57.12h8.63V41.36h19.68V57.12h12.89V73.69H170.93V97.62q0,3.8,1.55,5.29t5.24,1.5Z" transform="translate(0 0)"/><path class="cls-1" d="M224.15,59.89a24.23,24.23,0,0,1,12.6-3.45V77.49h-5.64q-7.83,0-12.14,3.34t-4.31,11.28v29.23H195V57.12h19.68V69.2A27.91,27.91,0,0,1,224.15,59.89Z" transform="translate(0 0)"/><path class="cls-1" d="M282.08,59.65a20.08,20.08,0,0,1,7.82,9.09V57.12h19.56v64.21H289.91V109.71a20.06,20.06,0,0,1-7.82,9.09,23.24,23.24,0,0,1-12.66,3.34,26,26,0,0,1-14.21-4,27.15,27.15,0,0,1-9.9-11.45,44.15,44.15,0,0,1,0-35,27.22,27.22,0,0,1,9.9-11.39,26,26,0,0,1,14.21-4A23.26,23.26,0,0,1,282.08,59.65ZM265.57,77.72q-3.86,4.14-3.85,11.51t3.85,11.51a14.45,14.45,0,0,0,20.37-.12q4-4.26,4-11.39t-4-11.45a14.52,14.52,0,0,0-20.37-.06Z" transform="translate(0 0)"/><path class="cls-1" d="M352.73,102.11l13.92-45h21l-22.78,64.21h-24.4L317.64,57.11h20.94Z" transform="translate(0 0)"/><path class="cls-1" d="M456.18,92.79H411.64q.35,7.25,3.68,10.41a11.87,11.87,0,0,0,8.51,3.16,11.64,11.64,0,0,0,7.25-2.19,10.22,10.22,0,0,0,3.8-5.64h20.83a27.22,27.22,0,0,1-5.52,12.14,29.41,29.41,0,0,1-10.82,8.4,36.94,36.94,0,0,1-31.36-.92,28.35,28.35,0,0,1-11.45-11.45,39.36,39.36,0,0,1-.06-35A28,28,0,0,1,408,60.29a37.77,37.77,0,0,1,33.6-.06,27.64,27.64,0,0,1,11.22,11,32.71,32.71,0,0,1,4,16.28A27.2,27.2,0,0,1,456.18,92.79ZM433.45,75a12.5,12.5,0,0,0-8.69-3.16,12.89,12.89,0,0,0-9,3.22q-3.57,3.22-4,9.44h25.08q.16-6.33-3.39-9.49Z" transform="translate(0 0)"/><path class="cls-1" d="M486.67,36.18v85.15H467V36.18Z" transform="translate(0 0)"/><path class="cls-2" d="M537.29,59.65a20.09,20.09,0,0,1,7.82,9.09V57.12h19.56V121a36.89,36.89,0,0,1-3.45,16.17,26.49,26.49,0,0,1-10.59,11.45q-7.12,4.29-17.71,4.29-14.5,0-23.19-6.85a27.84,27.84,0,0,1-10.41-18.58h19.45a9.75,9.75,0,0,0,4.2,6.1,15.2,15.2,0,0,0,8.57,2.19,13.8,13.8,0,0,0,9.84-3.51q3.74-3.51,3.74-11.22V109.71a20.07,20.07,0,0,1-7.82,9.09,23.24,23.24,0,0,1-12.66,3.34,26,26,0,0,1-14.21-4,27.14,27.14,0,0,1-9.89-11.45,44.15,44.15,0,0,1,0-35,27.21,27.21,0,0,1,9.89-11.39,26,26,0,0,1,14.21-4A23.26,23.26,0,0,1,537.29,59.65ZM520.78,77.72q-3.86,4.14-3.85,11.51t3.85,11.51a14.44,14.44,0,0,0,20.37-.12q4-4.26,4-11.39t-4-11.45a14.52,14.52,0,0,0-20.37-.06Z" transform="translate(0 0)"/><path class="cls-2" d="M625.38,60.29a29.11,29.11,0,0,1,11.85,11.45,37.61,37.61,0,0,1,0,35,29.1,29.1,0,0,1-11.85,11.45,38.88,38.88,0,0,1-34.23,0,29,29,0,0,1-11.91-11.45,37.6,37.6,0,0,1,0-35,29,29,0,0,1,11.91-11.45,38.88,38.88,0,0,1,34.23,0ZM598.8,77.43q-3.86,4.09-3.86,11.79T598.8,101a12.61,12.61,0,0,0,9.49,4,12.44,12.44,0,0,0,9.44-4q3.8-4,3.8-11.74t-3.8-11.79a12.36,12.36,0,0,0-9.44-4.08A12.53,12.53,0,0,0,598.8,77.43Z" transform="translate(0 0)"/><path class="cls-3" d="M74.23,5.34S125.58,7,113,88.89c0,0-14.19-17.61-42.1-23.67a24,24,0,0,1-14.08-9.08C53.68,51.94,50.47,45.8,48.54,37,44.73,19.54,63.85,3.15,74.23,5.34Z" transform="translate(0 0)"/><path class="cls-4" d="M49.65,23.36,48,34.84s43.15,4.37,64.46,51.35C112.47,86.18,107,32.65,49.65,23.36Z" transform="translate(0 0)"/><path class="cls-5" d="M113,90S125,24.73,76.16,5.46a2.34,2.34,0,0,0-.67-.15C69.3,4.79,53.75,4.9,50.72,26.09,50.74,26.1,99.36,30.47,113,90Z" transform="translate(0 0)"/><path class="cls-6" d="M113,88.89s9.56-46.79-8.74-42.61C85.15,50.68,113,88.89,113,88.89Z" transform="translate(0 0)"/><path class="cls-7" d="M72.59,3.7S55.11-3.4,27.8,2.06c0,0,10.92,0,10.92.55A56.16,56.16,0,0,0,18,17.36l6.55-1.64s-34.41,44.79-18,87.94,57.36,58.45,84.12,58.45A79,79,0,0,0,136,147.36a219.37,219.37,0,0,0-8.33-21.21c-5.62-12.41-13.76-27.16-23.35-35a166.85,166.85,0,0,0-31-19.76A40.39,40.39,0,0,1,54.53,51.67C49.14,39.49,48.69,21.89,72.59,3.7Z" transform="translate(0 0)"/><path class="cls-8" d="M38.36,22.82s-6.55,44.79,5.46,60.09c0,0-27.31,21.85-43.7-5.46C.13,77.44-4.24,31.56,38.36,22.82Z" transform="translate(0 0)"/><path class="cls-9" d="M54.12,9.89S29.6,14.15,31,30c.56,6.1,8.08,8.89,12.29,4.44a18.13,18.13,0,0,0,2.43-3.3A73.34,73.34,0,0,0,54.12,9.89Z" transform="translate(0 0)"/><path class="cls-1" d="M47.68,19.41a4.39,4.39,0,0,1-.06.91c-.35,2.21-2.22,11.12-10,11.12,0,0-3.56,0-2.37-5.23.82-3.63,3.65-7,5.3-8.69a5.18,5.18,0,0,1,4.18-1.62C46.14,16.05,47.55,16.89,47.68,19.41Z" transform="translate(0 0)"/><ellipse cx="42.82" cy="22.82" rx="4.1" ry="4.37"/><ellipse class="cls-10" cx="45.55" cy="21.73" rx="0.82" ry="1.09"/><polygon class="cls-11" points="117 132.89 194 144.89 162 166.89 125 153.89 117 132.89"/></svg>